<svg xmlns="http://www.w3.org/2000/svg" width="16" height="16" viewBox="0 0 16 16">
  <metadata><?xpacket begin="﻿" id="W5M0MpCehiHzreSzNTczkc9d"?>
<x:xmpmeta xmlns:x="adobe:ns:meta/" x:xmptk="Adobe XMP Core 5.6-c140 79.160451, 2017/05/06-01:08:21        ">
   <rdf:RDF xmlns:rdf="http://www.w3.org/1999/02/22-rdf-syntax-ns#">
      <rdf:Description rdf:about=""/>
   </rdf:RDF>
</x:xmpmeta>
                                                                                                    
                                                                                                    
                                                                                                    
                                                                                                    
                                                                                                    
                                                                                                    
                                                                                                    
                                                                                                    
                                                                                                    
                                                                                                    
                                                                                                    
                                                                                                    
                                                                                                    
                                                                                                    
                                                                                                    
                                                                                                    
                                                                                                    
                                                                                                    
                                                                                                    
                                                                                                    
                           
<?xpacket end="w"?></metadata>
<defs>
    <style>
      .cls-1 {
        fill: #c2cfd7;
        fill-rule: evenodd;
      }
    </style>
  </defs>
  <path id="Dribble" class="cls-1" d="M15.1,6.234a7.446,7.446,0,0,0-.436-1.4,7.494,7.494,0,0,0-1.6-2.373A7.4,7.4,0,0,0,9.284.422,7.47,7.47,0,0,0,2.5,2.459a7.624,7.624,0,0,0-.911,1.1A7.5,7.5,0,0,0,.462,6.234a7.545,7.545,0,0,0,0,3.008,7.493,7.493,0,0,0,1.125,2.674,7.636,7.636,0,0,0,.911,1.1,7.633,7.633,0,0,0,2.376,1.6,7.415,7.415,0,0,0,1.4.433,7.456,7.456,0,0,0,3.008,0,7.4,7.4,0,0,0,1.4-.433,7.268,7.268,0,0,0,1.269-.692,7.334,7.334,0,0,0,1.1-.909A7.443,7.443,0,0,0,15.1,9.242,7.545,7.545,0,0,0,15.1,6.234Zm-0.94,1.439a14.9,14.9,0,0,0-4.442-.207c-0.045-.109-0.091-0.221-0.138-0.33C9.443,6.824,9.3,6.515,9.152,6.213a8.226,8.226,0,0,0,3.554-2.525A6.36,6.36,0,0,1,14.156,7.673ZM11.993,2.953A6.968,6.968,0,0,1,8.661,5.261,32.066,32.066,0,0,0,6.277,1.541,6.373,6.373,0,0,1,11.993,2.953ZM6.252,1.545v0l-0.02,0A0.073,0.073,0,0,0,6.252,1.545ZM5.059,1.97A38.515,38.515,0,0,1,7.426,5.646a23.655,23.655,0,0,1-5.889.777A6.39,6.39,0,0,1,5.059,1.97ZM1.4,7.738c0-.068,0-0.135,0-0.2a23.4,23.4,0,0,0,6.549-.908c0.183,0.357.359,0.721,0.519,1.084-0.085.023-.168,0.049-0.252,0.076A10.077,10.077,0,0,0,3.034,12v0A6.363,6.363,0,0,1,1.4,7.738ZM7.78,14.117a6.357,6.357,0,0,1-4.063-1.461c0.083,0.068.143,0.111,0.143,0.111A8.65,8.65,0,0,1,8.865,8.781a0.412,0.412,0,0,1,.041-0.012,26.276,26.276,0,0,1,1.362,4.844A6.352,6.352,0,0,1,7.78,14.117Zm3.564-1.09A27.688,27.688,0,0,0,10.1,8.471a9.278,9.278,0,0,1,3.976.28A6.369,6.369,0,0,1,11.344,13.027Z"/>
</svg>
