<svg xmlns="http://www.w3.org/2000/svg" width="16" height="13" viewBox="0 0 16 13">
  <metadata><?xpacket begin="﻿" id="W5M0MpCehiHzreSzNTczkc9d"?>
<x:xmpmeta xmlns:x="adobe:ns:meta/" x:xmptk="Adobe XMP Core 5.6-c140 79.160451, 2017/05/06-01:08:21        ">
   <rdf:RDF xmlns:rdf="http://www.w3.org/1999/02/22-rdf-syntax-ns#">
      <rdf:Description rdf:about=""/>
   </rdf:RDF>
</x:xmpmeta>
                                                                                                    
                                                                                                    
                                                                                                    
                                                                                                    
                                                                                                    
                                                                                                    
                                                                                                    
                                                                                                    
                                                                                                    
                                                                                                    
                                                                                                    
                                                                                                    
                                                                                                    
                                                                                                    
                                                                                                    
                                                                                                    
                                                                                                    
                                                                                                    
                                                                                                    
                                                                                                    
                           
<?xpacket end="w"?></metadata>
<defs>
    <style>
      .cls-1 {
        fill: #c2cfd7;
        fill-rule: evenodd;
      }
    </style>
  </defs>
  <path id="Tweeter" class="cls-1" d="M15.739,1.553a6.026,6.026,0,0,1-1.752.479A3.057,3.057,0,0,0,15.329.343a6.129,6.129,0,0,1-1.939.744A3.053,3.053,0,0,0,8.107,3.175a3.118,3.118,0,0,0,.08.7A8.654,8.654,0,0,1,1.892.678a3.059,3.059,0,0,0,.945,4.079,3.046,3.046,0,0,1-1.384-.383V4.414A3.057,3.057,0,0,0,3.9,7.408a3.044,3.044,0,0,1-.806.107,2.932,2.932,0,0,1-.573-0.057A3.056,3.056,0,0,0,5.376,9.582a6.127,6.127,0,0,1-3.791,1.306,6.44,6.44,0,0,1-.73-0.042,8.657,8.657,0,0,0,4.682,1.371,8.629,8.629,0,0,0,8.688-8.688c0-.131,0-0.264-0.01-0.395A6.219,6.219,0,0,0,15.739,1.553Z"/>
</svg>
