<svg xmlns="http://www.w3.org/2000/svg" width="15" height="15" viewBox="0 0 15 15">
  <metadata><?xpacket begin="﻿" id="W5M0MpCehiHzreSzNTczkc9d"?>
<x:xmpmeta xmlns:x="adobe:ns:meta/" x:xmptk="Adobe XMP Core 5.6-c140 79.160451, 2017/05/06-01:08:21        ">
   <rdf:RDF xmlns:rdf="http://www.w3.org/1999/02/22-rdf-syntax-ns#">
      <rdf:Description rdf:about=""/>
   </rdf:RDF>
</x:xmpmeta>
                                                                                                    
                                                                                                    
                                                                                                    
                                                                                                    
                                                                                                    
                                                                                                    
                                                                                                    
                                                                                                    
                                                                                                    
                                                                                                    
                                                                                                    
                                                                                                    
                                                                                                    
                                                                                                    
                                                                                                    
                                                                                                    
                                                                                                    
                                                                                                    
                                                                                                    
                                                                                                    
                           
<?xpacket end="w"?></metadata>
<defs>
    <style>
      .cls-1 {
        fill: #c2cfd7;
        fill-rule: evenodd;
      }
    </style>
  </defs>
  <path id="Youtube" class="cls-1" d="M12.2,7.157H2.8A2.708,2.708,0,0,0,.091,9.864v2.178A2.708,2.708,0,0,0,2.8,14.747H12.2a2.706,2.706,0,0,0,2.705-2.7V9.864A2.707,2.707,0,0,0,12.2,7.157Zm-7.43,1.7H3.9V13.2H3.057V8.852H2.183V8.112H4.774v0.74ZM7.245,13.2H6.5v-0.41a1.626,1.626,0,0,1-.432.346,0.93,0.93,0,0,1-.437.119,0.462,0.462,0,0,1-.39-0.168,0.791,0.791,0,0,1-.134-0.5V9.444h0.75v2.877a0.307,0.307,0,0,0,.048.191,0.183,0.183,0,0,0,.153.063A0.425,0.425,0,0,0,6.263,12.5a0.989,0.989,0,0,0,.232-0.2V9.444h0.75V13.2Zm2.719-.775a0.938,0.938,0,0,1-.176.611,0.617,0.617,0,0,1-.508.211,0.894,0.894,0,0,1-.393-0.08,0.954,0.954,0,0,1-.32-0.256V13.2H7.808V8.112h0.76V9.749a1.116,1.116,0,0,1,.32-0.26A0.749,0.749,0,0,1,9.233,9.4a0.651,0.651,0,0,1,.545.24,1.123,1.123,0,0,1,.186.7v2.08Zm2.6-1.01H11.132v0.707a0.81,0.81,0,0,0,.071.41,0.286,0.286,0,0,0,.255.115,0.3,0.3,0,0,0,.26-0.1,0.776,0.776,0,0,0,.075-0.426V11.946h0.77V12.14a1.208,1.208,0,0,1-.282.869,1.115,1.115,0,0,1-.841.289,1.022,1.022,0,0,1-.793-0.311,1.186,1.186,0,0,1-.289-0.848V10.454a1.059,1.059,0,0,1,.318-0.795A1.127,1.127,0,0,1,11.5,9.353a1.049,1.049,0,0,1,.793.285,1.119,1.119,0,0,1,.275.816v0.957Zm-1.1-1.4a0.3,0.3,0,0,0-.256.1,0.546,0.546,0,0,0-.076.336v0.379h0.661V10.448a0.551,0.551,0,0,0-.078-0.336A0.29,0.29,0,0,0,11.464,10.009ZM8.88,10a0.378,0.378,0,0,0-.158.035,0.536,0.536,0,0,0-.154.115v2.338a0.612,0.612,0,0,0,.176.133,0.418,0.418,0,0,0,.183.039,0.24,0.24,0,0,0,.2-0.078,0.416,0.416,0,0,0,.064-0.258V10.382a0.446,0.446,0,0,0-.078-0.289A0.291,0.291,0,0,0,8.88,10ZM4.03,5.854H4.98V3.53L6.087,0.253H5.12L4.533,2.493H4.472L3.855,0.253H2.9L4.03,3.636V5.854Zm3.342,0.1a1.3,1.3,0,0,0,.906-0.3A1.083,1.083,0,0,0,8.6,4.825V2.692a1,1,0,0,0-.333-0.773,1.238,1.238,0,0,0-.86-0.3A1.387,1.387,0,0,0,6.5,1.9a0.941,0.941,0,0,0-.34.764V4.807a1.1,1.1,0,0,0,.332.839A1.244,1.244,0,0,0,7.372,5.958ZM7.023,2.636a0.288,0.288,0,0,1,.095-0.219,0.372,0.372,0,0,1,.253-0.082,0.411,0.411,0,0,1,.271.082,0.274,0.274,0,0,1,.1.219V4.888a0.343,0.343,0,0,1-.1.262,0.386,0.386,0,0,1-.272.092,0.337,0.337,0,0,1-.258-0.092,0.362,0.362,0,0,1-.09-0.262V2.636ZM9.88,5.915a1.074,1.074,0,0,0,.488-0.131A1.787,1.787,0,0,0,10.852,5.4V5.854H11.7V1.724H10.852V4.86a1.073,1.073,0,0,1-.259.221,0.486,0.486,0,0,1-.235.088A0.2,0.2,0,0,1,10.187,5.1a0.339,0.339,0,0,1-.055-0.213V1.724H9.29V5.175a0.865,0.865,0,0,0,.148.553A0.536,0.536,0,0,0,9.88,5.915Z"/>
</svg>
